<svg version="1" xmlns="http://www.w3.org/2000/svg" width="682.667" height="682.667" viewBox="0 0 512.000000 512.000000"><path d="M224 1.5C166.1 8.7 113.2 35.2 71.9 77.6c-5.8 6-13.3 14.5-16.8 18.8-6.2 7.9-16.1 22-16.1 23.1 0 .3-1.8 2.2-4.1 4.2-3.8 3.5-6.9 8.8-6.9 12 0 .8-2.4 7-5.4 13.7C10.8 176 3.9 201.3 1 228.2c-1.3 12.5-1.3 43.1 0 55.6 2.7 25.4 9.8 52.1 20.1 75.3 2.1 5 3.9 9.1 3.9 9.2 0 .1-3.9.2-8.7.2H7.5l-.3 7.5c-.3 8.9 1.6 13.3 6.9 16.2 2.7 1.4 5.6 1.8 14.9 1.8h11.5l2.8 4.9c7.4 13.3 30.6 39.1 48.7 54.3 25.2 21.2 57.4 38.5 89.4 48.2 24.3 7.4 46.8 10.6 74.6 10.6 27.8 0 50.3-3.2 74.6-10.6 32-9.7 64.2-27 89.4-48.2 18.1-15.2 41.3-41 48.7-54.3l2.8-4.9h15.6c10.7 0 15.9-.4 16.7-1.2.9-.9 1.2-10.7 1.2-37.8 0-32.9.2-37.7 2-46.1 4.7-22.1 6.4-57.3 4-80.7-10.8-101.4-82.5-188-180.4-217.6-13.2-4.1-33.3-8.1-46.8-9.6-13.1-1.4-46.9-1.1-59.8.5z"/></svg>